<svg xmlns="http://www.w3.org/2000/svg" id="profile" width="32" height="32" version="1.1" viewBox="0 0 32 32">
  <g id="layer1" transform="translate(-588)">
    <path id="path317" d="m 603.88314,2.0005446 c -3.57088,0.0312 -7.10743,1.42386 -9.78318,4.09961 -4.75689,4.7568764 -5.45724,12.2318464 -1.66601,17.7890564 a 0.50000009,0.50000009 0 0 0 0.69531,0.13281 0.50000009,0.50000009 0 0 0 0.13086,-0.69531 c -3.52391,-5.16537 -2.87461,-12.09806 1.54687,-16.5195264 4.42148,-4.42148 11.35415,-5.07079 16.51955,-1.54688 a 0.50000009,0.50000009 0 0 0 0.6953,-0.13086 0.50000009,0.50000009 0 0 0 -0.1328,-0.69531 c -2.4313,-1.65866 -5.2285,-2.45787 -8.0059,-2.43359 z m 9.3282,3.60546 a 0.50000009,0.50000009 0 0 0 -0.3926,0.15821 0.50000009,0.50000009 0 0 0 0.027,0.70898 c 0.118,0.10954 0.2338,0.22014 0.3476,0.33399 0.1099,0.109857 0.2184,0.222207 0.3243,0.335927 a 0.50000009,0.50000009 0 0 0 0.705,0.0254 0.50000009,0.50000009 0 0 0 0.025,-0.707027 c -0.114,-0.12247 -0.2293,-0.24302 -0.3476,-0.36132 -0.1226,-0.1226 -0.248,-0.24337 -0.375,-0.36133 a 0.50000009,0.50000009 0 0 0 -0.3145,-0.13282 z m -9.211,1.894537 c -1.9271,0 -3.49999,1.57293 -3.49999,3.4999994 0,1.92707 1.57289,3.5 3.49999,3.5 1.9271,0 3.5,-1.57293 3.5,-3.5 0,-1.9270694 -1.5729,-3.4999994 -3.5,-3.4999994 z m 11.1055,0.37695 a 0.50000009,0.50000009 0 0 0 -0.2461,0.0859 0.50000009,0.50000009 0 0 0 -0.1289,0.69531 c 3.5345,5.1660594 2.889,12.1090394 -1.5371,16.5351494 -4.4261,4.42612 -11.3691,5.07162 -16.53519,1.53711 a 0.50000009,0.50000009 0 0 0 -0.69531,0.12891 0.50000009,0.50000009 0 0 0 0.13086,0.69531 c 5.55794,3.80262 13.04474,3.10756 17.80664,-1.65429 4.7619,-4.76186 5.4569,-12.2487 1.6543,-17.8066394 a 0.50000009,0.50000009 0 0 0 -0.4492,-0.2168 z m -11.1055,0.62305 c 1.3866,0 2.5,1.11336 2.5,2.4999994 0,1.38663 -1.1134,2.5 -2.5,2.5 -1.3866,0 -2.49999,-1.11337 -2.49999,-2.5 0,-1.3866394 1.11339,-2.4999994 2.49999,-2.4999994 z m -1,6.4999994 c -2.47934,0 -4.49999,2.02064 -4.49999,4.5 v 5 a 0.50004899,0.50004899 0 0 0 0.5,0.5 h 2.99999 a 0.49999899,0.49999899 0 0 0 0.5,-0.5 0.49999899,0.49999899 0 0 0 -0.5,-0.5 h -2.49999 v -4.5 c 0,-1.93892 1.56109,-3.5 3.49999,-3.5 h 2 c 1.9389,0 3.5,1.56108 3.5,3.5 v 4.5 h -2.5 a 0.49999899,0.49999899 0 0 0 -0.5,0.5 0.49999899,0.49999899 0 0 0 0.5,0.5 h 3 a 0.50004899,0.50004899 0 0 0 0.5,-0.5 v -5 c 0,-2.47936 -2.0206,-4.5 -4.5,-4.5 z m 0.5,9 a 0.49999899,0.49999899 0 0 0 -0.5,0.5 0.49999899,0.49999899 0 0 0 0.5,0.5 h 1 a 0.49999899,0.49999899 0 0 0 0.5,-0.5 0.49999899,0.49999899 0 0 0 -0.5,-0.5 z m -9.41991,0.68554 a 0.50000009,0.50000009 0 0 0 -0.31641,0.13281 0.50000009,0.50000009 0 0 0 -0.0254,0.70704 c 0.11796,0.12706 0.23873,0.2524 0.36133,0.375 0.11831,0.11831 0.23885,0.23366 0.36133,0.34765 a 0.50000009,0.50000009 0 0 0 0.70703,-0.0254 0.50000009,0.50000009 0 0 0 -0.0254,-0.70508 c -0.11375,-0.10582 -0.22608,-0.21436 -0.33594,-0.32422 -0.11384,-0.11384 -0.22446,-0.22964 -0.33398,-0.34765 a 0.50000009,0.50000009 0 0 0 -0.39258,-0.16016 z" style="color:#000;display:inline;fill:#0e232e;stroke-width:1;stroke-linecap:round;stroke-linejoin:round;stroke-dashoffset:.1;-inkscape-stroke:none"></path>
  </g>
</svg>
